<svg id="Capa_1" enable-background="new 0 0 512 512" height="512" viewBox="0 0 512 512" width="512" xmlns="http://www.w3.org/2000/svg"><g><path d="m486.394 4.393-31.005 31.004c-13.515-2.089-42.377-5.327-77.781-2.142-61.133 5.5-118.191 28.408-161.082 71.3-37.342 37.342-54.01 68.121-68.409 102.479-37.621-9.432-77.836 1.339-105.778 29.282l-37.945 37.945c-4.919 4.919-5.811 12.575-2.153 18.492 3.656 5.917 10.902 8.542 17.503 6.345 1.78-.118 50.021-23.106 90.716 17.589l.03.029c-15.544 2.196-30.526 9.254-42.455 21.184-23.267 23.267-41.046 104.952-46.575 135.187-.887 4.847.664 9.821 4.148 13.305 3.483 3.484 8.454 5.034 13.306 4.149 30.432-5.571 111.789-23.176 135.187-46.575 11.93-11.93 18.989-26.912 21.185-42.456l.029.029c39.937 39.938 17.666 89.558 17.589 90.717-2.199 6.6.427 13.846 6.345 17.502 5.931 3.666 13.584 2.755 18.492-2.153l37.944-37.945c27.943-27.943 38.714-68.16 29.282-105.778 34.358-14.399 65.137-31.067 102.479-68.409 42.882-42.881 65.8-99.933 71.301-161.082 3.185-35.407-.053-64.267-2.142-77.781l31.005-31.004c5.858-5.858 5.858-15.355 0-21.213-5.86-5.857-15.358-5.858-21.216 0zm-107.023 58.826c29.841-2.777 54.915-.455 68.058 1.35 1.807 13.152 4.13 38.225 1.352 68.059-1.545 16.586-4.383 32.328-8.486 47.205l-108.129-108.128c14.877-4.104 30.619-6.941 47.205-8.486zm-321.088 199.578 5.268-5.268c19.426-19.426 46.972-27.505 73.277-22.306-5.652 14.422-11.886 30.273-19.738 47.966-17.275-12.207-37.656-19.28-58.807-20.392zm94.603 159.957c-11.585 11.584-58.376 25.265-97.497 33.854 8.582-39.112 22.26-85.896 33.857-97.494 17.538-17.539 46.084-17.55 63.635-.005 17.54 17.546 17.548 46.1.005 63.645zm101.584 25.695-5.268 5.268c-1.11-21.118-8.166-41.506-20.393-58.807 17.693-7.852 33.543-14.086 47.965-19.738 5.199 26.304-2.878 53.85-22.304 73.277zm131.761-174.188c-58.917 58.918-98.254 60.412-178.518 97.253 0 0-33.613-33.613-33.614-33.614s-.003-.003-.005-.005l-33.608-33.608c36.842-80.266 38.333-119.598 97.253-178.519 18.166-18.165 39.252-32.514 63.086-42.979l128.385 128.385c-10.465 23.835-24.814 44.922-42.979 63.087z"/><path d="m237.738 168.195c-29.243 29.242-29.243 76.824 0 106.066 29.242 29.241 76.823 29.242 106.066 0 29.241-29.243 29.241-76.823 0-106.066-29.241-29.242-76.823-29.242-106.066 0zm84.854 84.853c-17.547 17.545-46.096 17.544-63.641 0-17.545-17.546-17.545-46.094 0-63.64 17.544-17.543 46.091-17.548 63.641 0 17.545 17.545 17.545 46.095 0 63.64z"/></g></svg>